HIERARCHY
ROOT Hips
{
  OFFSET 204.265 91.6562 932.031
  CHANNELS 6 Xposition Yposition Zposition Zrotation Xrotation Yrotation
  JOINT Spine
  {
    OFFSET 0 8 0
    CHANNELS 6 Xposition Yposition Zposition Zrotation Xrotation Yrotation
    JOINT Spine1
    {
      OFFSET 0 8 0
      CHANNELS 6 Xposition Yposition Zposition Zrotation Xrotation Yrotation
      JOINT Spine2
      {
        OFFSET 0 8 0
        CHANNELS 6 Xposition Yposition Zposition Zrotation Xrotation Yrotation
        JOINT Spine3
        {
          OFFSET 0 8 0
          CHANNELS 6 Xposition Yposition Zposition Zrotation Xrotation Yrotation
          JOINT Neck
          {
            OFFSET 0 17 0
            CHANNELS 6 Xposition Yposition Zposition Zrotation Xrotation Yrotation
            JOINT Head
            {
              OFFSET 0 10.8 0
              CHANNELS 6 Xposition Yposition Zposition Zrotation Xrotation Yrotation
              End Site
              {
                OFFSET 0 20.25 0
              }
            }
          }
          JOINT LeftShoulder
          {
            OFFSET 5 17 0
            CHANNELS 6 Xposition Yposition Zposition Zrotation Xrotation Yrotation
            JOINT LeftShoulder2
            {
              OFFSET 6.45 0 0
              CHANNELS 6 Xposition Yposition Zposition Zrotation Xrotation Yrotation
              JOINT LeftArm
              {
                OFFSET 6.45 0 0
                CHANNELS 6 Xposition Yposition Zposition Zrotation Xrotation Yrotation
                JOINT LeftForeArm
                {
                  OFFSET 0 -32.4 -2
                  CHANNELS 6 Xposition Yposition Zposition Zrotation Xrotation Yrotation
                  JOINT LeftHand
                  {
                    OFFSET 0 -25.65 2
                    CHANNELS 6 Xposition Yposition Zposition Zrotation Xrotation Yrotation
                    JOINT LeftHandThumb1
                    {
                      OFFSET -0.5 -1.5 2.65
                      CHANNELS 6 Xposition Yposition Zposition Zrotation Xrotation Yrotation
                      JOINT LeftHandThumb2
                      {
                        OFFSET 0 -3.8 3.7
                        CHANNELS 6 Xposition Yposition Zposition Zrotation Xrotation Yrotation
                        JOINT LeftHandThumb3
                        {
                          OFFSET 0 -3 2.7
                          CHANNELS 6 Xposition Yposition Zposition Zrotation Xrotation Yrotation
                          End Site
                          {
                            OFFSET 0 -2.3 1.8
                          }
                        }
                      }
                    }
                    JOINT LeftHandIndex
                    {
                      OFFSET 0 -1.9 1.6
                      CHANNELS 6 Xposition Yposition Zposition Zrotation Xrotation Yrotation
                      JOINT LeftHandIndex1
                      {
                        OFFSET 0 -8.3 1.9
                        CHANNELS 6 Xposition Yposition Zposition Zrotation Xrotation Yrotation
                        JOINT LeftHandIndex2
                        {
                          OFFSET 0 -4.5 0
                          CHANNELS 6 Xposition Yposition Zposition Zrotation Xrotation Yrotation
                          JOINT LeftHandIndex3
                          {
                            OFFSET 0 -3.4 0
                            CHANNELS 6 Xposition Yposition Zposition Zrotation Xrotation Yrotation
                            End Site
                            {
                              OFFSET 0 -2.6 0
                            }
                          }
                        }
                      }
                    }
                    JOINT LeftHandMiddle
                    {
                      OFFSET -0.25 -2.2 0.4
                      CHANNELS 6 Xposition Yposition Zposition Zrotation Xrotation Yrotation
                      JOINT LeftHandMiddle1
                      {
                        OFFSET 0 -8.3 1
                        CHANNELS 6 Xposition Yposition Zposition Zrotation Xrotation Yrotation
                        JOINT LeftHandMiddle2
                        {
                          OFFSET 0 -4.65 0
                          CHANNELS 6 Xposition Yposition Zposition Zrotation Xrotation Yrotation
                          JOINT LeftHandMiddle3
                          {
                            OFFSET 0 -3.3 0
                            CHANNELS 6 Xposition Yposition Zposition Zrotation Xrotation Yrotation
                            End Site
                            {
                              OFFSET 0 -2.7 0
                            }
                          }
                        }
                      }
                    }
                    JOINT LeftHandRing
                    {
                      OFFSET -0.5 -2.15 -0.8
                      CHANNELS 6 Xposition Yposition Zposition Zrotation Xrotation Yrotation
                      JOINT LeftHandRing1
                      {
                        OFFSET 0 -7.75 -0.2
                        CHANNELS 6 Xposition Yposition Zposition Zrotation Xrotation Yrotation
                        JOINT LeftHandRing2
                        {
                          OFFSET 0 -3.8 0
                          CHANNELS 6 Xposition Yposition Zposition Zrotation Xrotation Yrotation
                          JOINT LeftHandRing3
                          {
                            OFFSET 0 -3.4 0
                            CHANNELS 6 Xposition Yposition Zposition Zrotation Xrotation Yrotation
                            End Site
                            {
                              OFFSET 0 -2.6 0
                            }
                          }
                        }
                      }
                    }
                    JOINT LeftHandPinky
                    {
                      OFFSET -0.75 -1.75 -1.85
                      CHANNELS 6 Xposition Yposition Zposition Zrotation Xrotation Yrotation
                      JOINT LeftHandPinky1
                      {
                        OFFSET 0 -7.15 -1
                        CHANNELS 6 Xposition Yposition Zposition Zrotation Xrotation Yrotation
                        JOINT LeftHandPinky2
                        {
                          OFFSET 0 -3 0
                          CHANNELS 6 Xposition Yposition Zposition Zrotation Xrotation Yrotation
                          JOINT LeftHandPinky3
                          {
                            OFFSET 0 -2.35 0
                            CHANNELS 6 Xposition Yposition Zposition Zrotation Xrotation Yrotation
                            End Site
                            {
                              OFFSET 0 -2.1 0
                            }
                          }
                        }
                      }
                    }
                  }
                }
              }
            }
          }
          JOINT RightShoulder
          {
            OFFSET -5 17 0
            CHANNELS 6 Xposition Yposition Zposition Zrotation Xrotation Yrotation
            JOINT RightShoulder2
            {
              OFFSET -6.45 0 0
              CHANNELS 6 Xposition Yposition Zposition Zrotation Xrotation Yrotation
              JOINT RightArm
              {
                OFFSET -6.45 0 0
                CHANNELS 6 Xposition Yposition Zposition Zrotation Xrotation Yrotation
                JOINT RightForeArm
                {
                  OFFSET 0 -32.4 -2
                  CHANNELS 6 Xposition Yposition Zposition Zrotation Xrotation Yrotation
                  JOINT RightHand
                  {
                    OFFSET 0 -25.65 2
                    CHANNELS 6 Xposition Yposition Zposition Zrotation Xrotation Yrotation
                    JOINT RightHandThumb1
                    {
                      OFFSET 0.5 -1.5 2.65
                      CHANNELS 6 Xposition Yposition Zposition Zrotation Xrotation Yrotation
                      JOINT RightHandThumb2
                      {
                        OFFSET 0 -3.8 3.7
                        CHANNELS 6 Xposition Yposition Zposition Zrotation Xrotation Yrotation
                        JOINT RightHandThumb3
                        {
                          OFFSET 0 -3 2.7
                          CHANNELS 6 Xposition Yposition Zposition Zrotation Xrotation Yrotation
                          End Site
                          {
                            OFFSET 0 -2.3 1.8
                          }
                        }
                      }
                    }
                    JOINT RightHandIndex
                    {
                      OFFSET 0 -1.9 1.6
                      CHANNELS 6 Xposition Yposition Zposition Zrotation Xrotation Yrotation
                      JOINT RightHandIndex1
                      {
                        OFFSET 0 -8.3 1.9
                        CHANNELS 6 Xposition Yposition Zposition Zrotation Xrotation Yrotation
                        JOINT RightHandIndex2
                        {
                          OFFSET 0 -4.5 0
                          CHANNELS 6 Xposition Yposition Zposition Zrotation Xrotation Yrotation
                          JOINT RightHandIndex3
                          {
                            OFFSET 0 -3.4 0
                            CHANNELS 6 Xposition Yposition Zposition Zrotation Xrotation Yrotation
                            End Site
                            {
                              OFFSET 0 -2.6 0
                            }
                          }
                        }
                      }
                    }
                    JOINT RightHandMiddle
                    {
                      OFFSET 0.25 -2.2 0.4
                      CHANNELS 6 Xposition Yposition Zposition Zrotation Xrotation Yrotation
                      JOINT RightHandMiddle1
                      {
                        OFFSET 0 -8.3 1
                        CHANNELS 6 Xposition Yposition Zposition Zrotation Xrotation Yrotation
                        JOINT RightHandMiddle2
                        {
                          OFFSET 0 -4.65 0
                          CHANNELS 6 Xposition Yposition Zposition Zrotation Xrotation Yrotation
                          JOINT RightHandMiddle3
                          {
                            OFFSET 0 -3.3 0
                            CHANNELS 6 Xposition Yposition Zposition Zrotation Xrotation Yrotation
                            End Site
                            {
                              OFFSET 0 -2.7 0
                            }
                          }
                        }
                      }
                    }
                    JOINT RightHandRing
                    {
                      OFFSET 0.5 -2.15 -0.8
                      CHANNELS 6 Xposition Yposition Zposition Zrotation Xrotation Yrotation
                      JOINT RightHandRing1
                      {
                        OFFSET 0 -7.75 -0.2
                        CHANNELS 6 Xposition Yposition Zposition Zrotation Xrotation Yrotation
                        JOINT RightHandRing2
                        {
                          OFFSET 0 -3.8 0
                          CHANNELS 6 Xposition Yposition Zposition Zrotation Xrotation Yrotation
                          JOINT RightHandRing3
                          {
                            OFFSET 0 -3.4 0
                            CHANNELS 6 Xposition Yposition Zposition Zrotation Xrotation Yrotation
                            End Site
                            {
                              OFFSET 0 -2.6 0
                            }
                          }
                        }
                      }
                    }
                    JOINT RightHandPinky
                    {
                      OFFSET 0.75 -1.75 -1.85
                      CHANNELS 6 Xposition Yposition Zposition Zrotation Xrotation Yrotation
                      JOINT RightHandPinky1
                      {
                        OFFSET 0 -7.15 -1
                        CHANNELS 6 Xposition Yposition Zposition Zrotation Xrotation Yrotation
                        JOINT RightHandPinky2
                        {
                          OFFSET 0 -3 0
                          CHANNELS 6 Xposition Yposition Zposition Zrotation Xrotation Yrotation
                          JOINT RightHandPinky3
                          {
                            OFFSET 0 -2.35 0
                            CHANNELS 6 Xposition Yposition Zposition Zrotation Xrotation Yrotation
                            End Site
                            {
                              OFFSET 0 -2.1 0
                            }
                          }
                        }
                      }
                    }
                  }
                }
              }
            }
          }
        }
      }
    }
  }
  JOINT LeftUpLeg
  {
    OFFSET 8 0 0
    CHANNELS 6 Xposition Yposition Zposition Zrotation Xrotation Yrotation
    JOINT LeftLeg
    {
      OFFSET 0 -45 -1
      CHANNELS 6 Xposition Yposition Zposition Zrotation Xrotation Yrotation
      JOINT LeftFoot
      {
        OFFSET 0 -41 -2
        CHANNELS 6 Xposition Yposition Zposition Zrotation Xrotation Yrotation
        JOINT LeftToeBase
        {
          OFFSET 0 -7.5 12.5
          CHANNELS 6 Xposition Yposition Zposition Zrotation Xrotation Yrotation
          JOINT LeftFootToe
          {
            OFFSET 0 0 4
            CHANNELS 6 Xposition Yposition Zposition Zrotation Xrotation Yrotation
            End Site
            {
              OFFSET 0 0 0
            }
          }
        }
      }
    }
  }
  JOINT RightUpLeg
  {
    OFFSET -8 0 0
    CHANNELS 6 Xposition Yposition Zposition Zrotation Xrotation Yrotation
    JOINT RightLeg
    {
      OFFSET 0 -45 -1
      CHANNELS 6 Xposition Yposition Zposition Zrotation Xrotation Yrotation
      JOINT RightFoot
      {
        OFFSET 0 -41 -2
        CHANNELS 6 Xposition Yposition Zposition Zrotation Xrotation Yrotation
        JOINT RightToeBase
        {
          OFFSET 0 -7.5 12.5
          CHANNELS 6 Xposition Yposition Zposition Zrotation Xrotation Yrotation
          JOINT RightFootToe
          {
            OFFSET 0 0 4
            CHANNELS 6 Xposition Yposition Zposition Zrotation Xrotation Yrotation
            End Site
            {
              OFFSET 0 0 0
            }
          }
        }
      }
    }
  }
}
MOTION
Frames:	3
Frame Time:	0.0111111
249.119 92.9219 940.98 -3.50837 -0.427455 58.5926 0 8 -1.13687e-13 12.4962 23.6236 8.11099 0 8 5.68434e-14 6.91169 6.99794 7.61974 0 8 5.68434e-14 1.36736 -0.617711 -57.7598 2.84217e-14 8 1.13687e-13 3.55509 3.37348 3.90386 0 17 0 -6.63304 -8.40443 -3.62654 0 10.8 0 -16.8264 -18.9186 -10.2979 5 17 0 -18.995 -3.89402 15.2834 6.45 0 1.13687e-13 3.99967 0.48398 -3.93489 6.45 1.13687e-13 -1.13687e-13 6.61811 -38.4903 28.8185 1.13687e-13 -32.4 -2 -2.73816 -53.1206 27.2279 -1.13687e-13 -25.65 2 -7.47888 3.83425 -0.581031 -0.5 -1.5 2.65 7.39405 -8.788 7.67029 -1.13687e-13 -3.8 3.7 -0.136649 17.0818 0.0120567 0 -3 2.7 -0.044334 56.9337 -0.102913 1.13687e-13 -1.9 1.6 -3.18055e-15 1.03368e-14 4.77083e-15 0 -8.3 1.9 -0.629452 6.6758 0.0578888 1.13687e-13 -4.5 0 -0.000222285 0.0142384 -0.000362706 0 -3.4 0 -4.85857e-06 0.0222693 -0.000297602 -0.25 -2.2 0.4 -3.18055e-15 1.03368e-14 4.77083e-15 -1.13687e-13 -8.3 1 -14.4401 13.553 2.76562 0 -4.65 -5.68434e-14 -27.1201 -0.0306684 -0.010691 1.13687e-13 -3.3 0 -20.3493 -0.0190486 -0.0162572 -0.5 -2.15 -0.8 -3.18055e-15 1.03368e-14 4.77083e-15 0 -7.75 -0.2 -34.2701 18.0334 8.27508 0 -3.8 0 -39.1146 -0.000928228 -0.026764 5.68434e-14 -3.4 0 -27.5522 0.00750442 -0.0165593 -0.75 -1.75 -1.85 -3.18055e-15 1.03368e-14 4.77083e-15 0 -7.15 -1 -57.0519 21.4582 16.5399 0 -3 0 -6.01919e-05 0.0183969 -0.0319368 4.26326e-14 -2.35 5.68434e-14 -3.47771e-05 0.0489109 -0.0328456 -5 17 -1.13687e-13 -11.6594 3.88713 4.06829 -6.45 0 0 -0.211549 1.08072 -3.6266 -6.45 0 -1.13687e-13 -46.1014 -36.4473 -22.608 0 -32.4 -2 12.4908 -36.2213 25.0487 0 -25.65 2 -20.6497 -33.9228 13.4234 0.5 -1.5 2.65 5.14769 -22.5128 1.47028 1.13687e-13 -3.8 3.7 0.107696 -1.07857 -0.0418173 0 -3 2.7 0.0103405 -0.304746 -0.0141285 5.68434e-14 -1.9 1.6 0 3.18055e-15 -0 -5.68434e-14 -8.3 1.9 4.41243 17.1056 -0.824842 5.68434e-14 -4.5 0 46.594 0.00828668 0.00470512 0 -3.4 2.84217e-14 32.2303 0.00623658 -0.00310651 0.25 -2.2 0.4 0 3.18055e-15 -0 0 -8.3 1 19.6077 20.1025 -4.78883 0 -4.65 2.84217e-14 73.2621 -0.000806235 0.0101706 -2.27374e-13 -3.3 5.68434e-14 55.8562 0.000726084 0.000960625 0.5 -2.15 -0.8 0 3.18055e-15 -0 0 -7.75 -0.2 49.6077 10.8608 -8.18948 1.13687e-13 -3.8 0 62.5109 -0.0114126 0.0162357 0 -3.4 2.84217e-14 44.3312 0.0042197 0.0165187 0.75 -1.75 -1.85 0 9.54166e-15 -0 -5.68434e-14 -7.15 -1 63.5827 4.93861 -8.15331 0 -3 2.84217e-14 34.896 -0.021165 0.0174442 0 -2.35 0 25.0194 -0.00726094 0.0149129 8 2.84217e-14 0 2.32179 -14.8282 4.00315 -1.13687e-13 -45 -1 -0.0107448 3.82565 0.325299 1.13687e-13 -41 -2 0.701344 6.7201 -0.826668 -1.13687e-13 -7.5 12.5 9.93923e-17 0.445735 -0 0 0 4 -2.52011 -5.66315 7.73501 -8 0 -1.13687e-13 -2.01782 -9.42112 -34.9554 -2.84217e-14 -45 -1 0.00315636 6.86968 -0.71057 0 -41 -2 -0.366468 0.976126 14.7322 1.13687e-13 -7.5 12.5 -3.10601e-18 -4.88995e-09 3.18055e-15 0 0 4 3.3616 -1.37706 14.5267 
249.016 92.9218 941.06 -3.51814 -0.48446 58.6919 -1.13687e-13 8 -1.13687e-13 12.6033 23.5935 8.10264 0 8 -5.68434e-14 6.91963 6.98886 7.61235 0 8 0 1.3707 -0.622251 -57.7602 5.68434e-14 8 0 3.55851 3.36894 3.90374 0 17 0 -6.63414 -8.38978 -3.64785 -5.68434e-14 10.8 0 -16.8312 -18.8798 -10.3448 5 17 0 -18.9454 -3.92768 15.2315 6.45 0 1.13687e-13 3.99939 0.47496 -3.92386 6.45 0 -1.13687e-13 6.84067 -38.4646 28.8415 0 -32.4 -2 -2.40514 -53.1936 27.0269 1.13687e-13 -25.65 2 -7.02955 3.819 -1.07405 -0.5 -1.5 2.65 7.19443 -8.33521 7.31146 0 -3.8 3.7 -0.131116 16.871 0.0118469 -1.13687e-13 -3 2.7 -0.0560365 55.1328 -0.0882296 0 -1.9 1.6 3.31043e-31 -1.19271e-14 1.59028e-15 0 -8.3 1.9 -0.596227 6.52427 0.058084 0 -4.5 0 -0.000204241 0.0143672 -0.000327185 0 -3.4 0 -4.83533e-06 0.0226502 -0.000265312 -0.25 -2.2 0.4 3.31043e-31 -1.19271e-14 1.59028e-15 0 -8.3 1 -14.3276 13.4386 2.75177 0 -4.65 0 -26.3963 -0.0296313 -0.0105646 5.68434e-14 -3.3 0 -19.9084 -0.0180581 -0.0158032 -0.5 -2.15 -0.8 3.31043e-31 -1.19271e-14 1.59028e-15 1.13687e-13 -7.75 -0.2 -34.6767 18.3013 8.47374 0 -3.8 0 -38.7226 -0.00179786 -0.0182223 5.68434e-14 -3.4 0 -27.3137 0.00415943 -0.0148104 -0.75 -1.75 -1.85 3.31043e-31 -1.19271e-14 1.59028e-15 0 -7.15 -1 -56.7651 21.4659 16.428 -1.42109e-14 -3 0 -6.20282e-05 0.0188961 -0.0323872 5.68434e-14 -2.35 1.13687e-13 -3.51238e-05 0.0497217 -0.0333137 -5 17 0 -11.616 3.82876 4.08907 -6.45 -1.13687e-13 0 -0.212923 1.08029 -3.65531 -6.45 0 0 -46.137 -36.436 -22.6096 0 -32.4 -2 12.5257 -36.4098 25.2984 -1.13687e-13 -25.65 2 -20.9076 -34.2853 13.4433 0.5 -1.5 2.65 4.98585 -22.6402 1.46537 5.68434e-14 -3.8 3.7 0.108524 -0.641701 -0.0415698 -5.68434e-14 -3 2.7 0.0103902 -0.304745 -0.0137924 0 -1.9 1.6 0 3.18055e-15 -0 -1.13687e-13 -8.3 1.9 4.30438 16.897 -0.796891 0 -4.5 0 46.9273 0.0261725 0.0144099 0 -3.4 2.84217e-14 32.4552 0.0197456 -0.00519187 0.25 -2.2 0.4 -0 -3.18055e-15 -0 0 -8.3 1 19.3453 20.0382 -4.72035 0 -4.65 2.84217e-14 73.3013 0.00214999 0.0100505 -1.13687e-13 -3.3 0 55.9078 0.000781401 -0.00271612 0.5 -2.15 -0.8 0 3.18055e-15 -0 -5.68434e-14 -7.75 -0.2 49.4766 11.118 -8.28892 1.13687e-13 -3.8 0 61.5074 -0.0118197 0.0155925 1.13687e-13 -3.4 0 43.4193 0.00307758 0.0165199 0.75 -1.75 -1.85 0 3.18055e-15 -0 -5.68434e-14 -7.15 -1 63.4479 5.17293 -8.26849 0 -3 0 33.7189 -0.0283245 0.0164502 0 -2.35 -2.84217e-14 24.3153 -0.00673529 0.0140519 8 2.84217e-14 0 2.44303 -14.8501 4.0687 0 -45 -1 -0.0102086 3.82393 0.312242 0 -41 -2 0.645031 6.71791 -0.855982 0 -7.5 12.5 -1.98785e-16 0.446374 -0 0 0 4 -2.43194 -5.64853 7.73819 -8 1.42109e-14 -1.13687e-13 -1.86003 -9.37562 -34.9784 2.84217e-14 -45 -1 0.00189668 6.74814 -0.71164 0 -41 -2 -0.443608 1.01205 14.7895 -5.68434e-14 -7.5 12.5 3.10601e-18 -4.86945e-09 9.54166e-15 0 0 4 3.42972 -1.45693 14.5331 
248.91 92.9217 941.138 -3.53059 -0.545224 58.7866 0 8 0 12.7174 23.5635 8.09923 1.13687e-13 8 0 6.92541 6.98135 7.61196 1.13687e-13 8 0 1.37307 -0.624457 -57.7604 0 8 0 3.56049 3.36475 3.90364 5.68434e-14 17 -1.13687e-13 -6.63541 -8.37589 -3.67015 5.68434e-14 10.8 0 -16.8375 -18.8426 -10.395 5 17 -1.13687e-13 -18.9033 -3.96145 15.1809 6.45 0 0 3.99903 0.464984 -3.91515 6.45 0 0 7.05945 -38.4614 28.8688 1.13687e-13 -32.4 -2 -2.15473 -53.2635 26.8029 1.13687e-13 -25.65 2 -6.49146 3.78288 -1.61647 -0.5 -1.5 2.65 6.94441 -7.88706 6.95356 1.13687e-13 -3.8 3.7 -0.123989 16.6923 0.0116447 1.13687e-13 -3 2.7 -0.0645646 53.2451 -0.0785628 0 -1.9 1.6 3.18055e-15 7.15625e-15 4.77083e-15 -1.13687e-13 -8.3 1.9 -0.579672 6.46404 0.0585378 -1.13687e-13 -4.5 -2.84217e-14 -0.000186254 0.0144873 -0.000290103 0 -3.4 0 -4.81439e-06 0.0230083 -0.000231788 -0.25 -2.2 0.4 3.18055e-15 7.15625e-15 4.77083e-15 0 -8.3 1 -14.1867 13.386 2.73156 -1.13687e-13 -4.65 0 -25.7 -0.0295359 -0.0103316 0 -3.3 5.68434e-14 -19.4823 -0.0170438 -0.0152299 -0.5 -2.15 -0.8 3.18055e-15 7.15625e-15 4.77083e-15 0 -7.75 -0.2 -34.7781 18.4397 8.54488 0 -3.8 -5.68434e-14 -38.3525 -0.00262985 -0.0118183 5.68434e-14 -3.4 0 -27.0893 0.0018343 -0.0126854 -0.75 -1.75 -1.85 3.18055e-15 7.15625e-15 4.77083e-15 1.13687e-13 -7.15 -1 -56.5665 21.394 16.2976 -1.42109e-14 -3 -5.68434e-14 -6.38613e-05 0.0193954 -0.0328377 4.26326e-14 -2.35 0 -3.5458e-05 0.0505326 -0.033782 -5 17 -1.13687e-13 -11.5753 3.77589 4.12537 -6.45 -1.13687e-13 1.13687e-13 -0.213961 1.07984 -3.69401 -6.45 0 0 -46.1775 -36.4172 -22.5979 0 -32.4 -2 12.5634 -36.6358 25.5607 -1.13687e-13 -25.65 2 -21.1845 -34.6909 13.4937 0.5 -1.5 2.65 4.8496 -22.7715 1.43759 1.13687e-13 -3.8 3.7 0.109427 -0.109668 -0.041345 0 -3 2.7 0.0104416 -0.304745 -0.0134791 5.68434e-14 -1.9 1.6 0 0 -0 -5.68434e-14 -8.3 1.9 4.15878 16.622 -0.760379 5.68434e-14 -4.5 2.84217e-14 47.6575 0.0486909 0.0238833 -1.13687e-13 -3.4 0 32.9514 0.036022 -0.0073451 0.25 -2.2 0.4 0 0 -0 0 -8.3 1 19.1549 19.8732 -4.64619 1.13687e-13 -4.65 0 73.3717 0.00878084 0.00988816 -1.13687e-13 -3.3 1.42109e-14 56.0021 0.000798112 -0.0110765 0.5 -2.15 -0.8 0 0 -0 0 -7.75 -0.2 49.2751 11.2853 -8.33024 0 -3.8 2.84217e-14 60.8145 -0.01215 0.0149446 -1.13687e-13 -3.4 -2.84217e-14 42.799 0.0022408 0.0164447 0.75 -1.75 -1.85 0 3.18055e-15 -0 -5.68434e-14 -7.15 -1 63.2619 5.33058 -8.32236 2.27374e-13 -3 -5.68434e-14 32.4053 -0.0349546 0.0153617 0 -2.35 -2.84217e-14 23.5288 -0.0062285 0.0132828 8 1.42109e-14 0 2.56971 -14.8822 4.12416 0 -45 -1 -0.00976377 3.83778 0.299326 0 -41 -2 0.587143 6.71642 -0.868365 -1.13687e-13 -7.5 12.5 -2.23733e-16 0.447012 -9.54195e-15 0 -1.77636e-15 4 -2.34194 -5.63602 7.73926 -8 -1.42109e-14 0 -1.69155 -9.32737 -35.0172 0 -45 -1 0.000447585 6.61456 -0.712358 0 -41 -2 -0.525889 1.05388 14.8605 -1.13687e-13 -7.5 12.5 -1.553e-18 -4.84894e-09 6.36111e-15 0 -6.93889e-18 4 3.48921 -1.54395 14.5102 
